<mxfile host="app.diagrams.net" agent="Mozilla/5.0 (Windows NT 10.0; Win64; x64) AppleWebKit/537.36 (KHTML, like Gecko) Chrome/137.0.0.0 Safari/537.36 Edg/137.0.0.0" version="27.1.6" pages="2">
  <diagram name="Página-1" id="As-ylru9SlLK7KS7QaXn">
    <mxGraphModel grid="1" page="1" gridSize="10" guides="1" tooltips="1" connect="1" arrows="1" fold="1" pageScale="1" pageWidth="827" pageHeight="1169" math="0" shadow="0">
      <root>
        <mxCell id="0" />
        <mxCell id="1" parent="0" />
        <mxCell id="OqLWs8lkASF6wgnuQL3f-41" value="" style="edgeStyle=orthogonalEdgeStyle;rounded=0;orthogonalLoop=1;jettySize=auto;html=1;endArrow=none;startFill=0;dashed=1;" edge="1" parent="1" source="sEuESF4rzVyC_rkCTEI_-47" target="OqLWs8lkASF6wgnuQL3f-2">
          <mxGeometry relative="1" as="geometry">
            <mxPoint x="412" y="895" as="sourcePoint" />
            <mxPoint x="412" y="275" as="targetPoint" />
            <Array as="points">
              <mxPoint x="411" y="495" />
              <mxPoint x="411" y="495" />
            </Array>
          </mxGeometry>
        </mxCell>
        <mxCell id="OqLWs8lkASF6wgnuQL3f-17" style="edgeStyle=orthogonalEdgeStyle;rounded=0;orthogonalLoop=1;jettySize=auto;html=1;dashed=1;endArrow=none;startFill=0;" edge="1" parent="1" source="sEuESF4rzVyC_rkCTEI_-43" target="sEuESF4rzVyC_rkCTEI_-46">
          <mxGeometry relative="1" as="geometry" />
        </mxCell>
        <mxCell id="sEuESF4rzVyC_rkCTEI_-43" value="Administrador" style="html=1;whiteSpace=wrap;" vertex="1" parent="1">
          <mxGeometry x="159" y="225" width="110" height="50" as="geometry" />
        </mxCell>
        <mxCell id="sEuESF4rzVyC_rkCTEI_-44" value="Sistema&lt;span style=&quot;color: rgba(0, 0, 0, 0); font-family: monospace; font-size: 0px; text-align: start; text-wrap-mode: nowrap;&quot;&gt;%3CmxGraphModel%3E%3Croot%3E%3CmxCell%20id%3D%220%22%2F%3E%3CmxCell%20id%3D%221%22%20parent%3D%220%22%2F%3E%3CmxCell%20id%3D%222%22%20value%3D%22Usuario%22%20style%3D%22html%3D1%3BwhiteSpace%3Dwrap%3B%22%20vertex%3D%221%22%20parent%3D%221%22%3E%3CmxGeometry%20x%3D%2270%22%20y%3D%2240%22%20width%3D%22110%22%20height%3D%2250%22%20as%3D%22geometry%22%2F%3E%3C%2FmxCell%3E%3C%2Froot%3E%3C%2FmxGraphModel%3E&lt;/span&gt;" style="html=1;whiteSpace=wrap;" vertex="1" parent="1">
          <mxGeometry x="356.5" y="225" width="110" height="50" as="geometry" />
        </mxCell>
        <mxCell id="sEuESF4rzVyC_rkCTEI_-45" value="Base de datos" style="html=1;whiteSpace=wrap;" vertex="1" parent="1">
          <mxGeometry x="559" y="225" width="110" height="50" as="geometry" />
        </mxCell>
        <mxCell id="sEuESF4rzVyC_rkCTEI_-46" value="Administrador" style="html=1;whiteSpace=wrap;" vertex="1" parent="1">
          <mxGeometry x="159" y="895" width="110" height="50" as="geometry" />
        </mxCell>
        <mxCell id="OqLWs8lkASF6wgnuQL3f-1" style="edgeStyle=orthogonalEdgeStyle;rounded=0;orthogonalLoop=1;jettySize=auto;html=1;endArrow=none;startFill=0;dashed=1;" edge="1" parent="1" source="OqLWs8lkASF6wgnuQL3f-2" target="sEuESF4rzVyC_rkCTEI_-44">
          <mxGeometry relative="1" as="geometry">
            <Array as="points">
              <mxPoint x="412" y="295" />
              <mxPoint x="412" y="295" />
            </Array>
          </mxGeometry>
        </mxCell>
        <mxCell id="sEuESF4rzVyC_rkCTEI_-47" value="Sistema&lt;span style=&quot;color: rgba(0, 0, 0, 0); font-family: monospace; font-size: 0px; text-align: start; text-wrap-mode: nowrap;&quot;&gt;%3CmxGraphModel%3E%3Croot%3E%3CmxCell%20id%3D%220%22%2F%3E%3CmxCell%20id%3D%221%22%20parent%3D%220%22%2F%3E%3CmxCell%20id%3D%222%22%20value%3D%22Usuario%22%20style%3D%22html%3D1%3BwhiteSpace%3Dwrap%3B%22%20vertex%3D%221%22%20parent%3D%221%22%3E%3CmxGeometry%20x%3D%2270%22%20y%3D%2240%22%20width%3D%22110%22%20height%3D%2250%22%20as%3D%22geometry%22%2F%3E%3C%2FmxCell%3E%3C%2Froot%3E%3C%2FmxGraphModel%3E&lt;/span&gt;" style="html=1;whiteSpace=wrap;" vertex="1" parent="1">
          <mxGeometry x="356.5" y="895" width="110" height="50" as="geometry" />
        </mxCell>
        <mxCell id="sEuESF4rzVyC_rkCTEI_-48" value="Base de datos" style="html=1;whiteSpace=wrap;" vertex="1" parent="1">
          <mxGeometry x="559" y="895" width="110" height="50" as="geometry" />
        </mxCell>
        <mxCell id="sEuESF4rzVyC_rkCTEI_-56" value="" style="endArrow=none;dashed=1;html=1;rounded=0;entryX=0.5;entryY=1;entryDx=0;entryDy=0;exitX=0.5;exitY=0;exitDx=0;exitDy=0;" edge="1" parent="1" source="OqLWs8lkASF6wgnuQL3f-39" target="sEuESF4rzVyC_rkCTEI_-45">
          <mxGeometry width="50" height="50" relative="1" as="geometry">
            <mxPoint x="614" y="615" as="sourcePoint" />
            <mxPoint x="615.2500000000002" y="615" as="targetPoint" />
          </mxGeometry>
        </mxCell>
        <mxCell id="sEuESF4rzVyC_rkCTEI_-77" value="" style="endArrow=classic;html=1;rounded=0;fontSize=12;startSize=8;endSize=8;edgeStyle=orthogonalEdgeStyle;" edge="1" parent="1" target="sEuESF4rzVyC_rkCTEI_-80">
          <mxGeometry width="50" height="50" relative="1" as="geometry">
            <mxPoint x="614" y="780" as="sourcePoint" />
            <mxPoint x="624" y="755" as="targetPoint" />
            <Array as="points" />
          </mxGeometry>
        </mxCell>
        <mxCell id="sEuESF4rzVyC_rkCTEI_-113" value="9. Confirmar eliminación de cuenta" style="text;html=1;align=center;verticalAlign=middle;whiteSpace=wrap;rounded=0;" vertex="1" parent="1">
          <mxGeometry x="436.5" y="745" width="150" height="20" as="geometry" />
        </mxCell>
        <mxCell id="sEuESF4rzVyC_rkCTEI_-132" value="10. Notificar cuenta eliminada con éxito" style="text;html=1;align=center;verticalAlign=middle;whiteSpace=wrap;rounded=0;" vertex="1" parent="1">
          <mxGeometry x="232" y="805" width="166.5" height="20" as="geometry" />
        </mxCell>
        <mxCell id="sEuESF4rzVyC_rkCTEI_-151" value="" style="html=1;points=[[0,0,0,0,5],[0,1,0,0,-5],[1,0,0,0,5],[1,1,0,0,-5]];perimeter=orthogonalPerimeter;outlineConnect=0;targetShapes=umlLifeline;portConstraint=eastwest;newEdgeStyle={&quot;curved&quot;:0,&quot;rounded&quot;:0};" vertex="1" parent="1">
          <mxGeometry x="210.5" y="815" width="10" height="30" as="geometry" />
        </mxCell>
        <mxCell id="sEuESF4rzVyC_rkCTEI_-153" value="" style="endArrow=classic;html=1;rounded=0;fontSize=12;startSize=8;endSize=8;dashed=1;" edge="1" parent="1">
          <mxGeometry width="50" height="50" relative="1" as="geometry">
            <mxPoint x="410" y="835" as="sourcePoint" />
            <mxPoint x="220.5" y="835" as="targetPoint" />
          </mxGeometry>
        </mxCell>
        <mxCell id="OqLWs8lkASF6wgnuQL3f-3" value="" style="endArrow=classic;html=1;rounded=0;entryX=0;entryY=0;entryDx=0;entryDy=5;entryPerimeter=0;" edge="1" parent="1" target="OqLWs8lkASF6wgnuQL3f-2">
          <mxGeometry width="50" height="50" relative="1" as="geometry">
            <mxPoint x="221.5" y="320" as="sourcePoint" />
            <mxPoint x="321.5" y="295" as="targetPoint" />
          </mxGeometry>
        </mxCell>
        <mxCell id="OqLWs8lkASF6wgnuQL3f-4" value="1. Pulsa apartado &quot;Administrar cuentas&quot;" style="text;html=1;align=center;verticalAlign=middle;whiteSpace=wrap;rounded=0;" vertex="1" parent="1">
          <mxGeometry x="228.5" y="295" width="170" height="20" as="geometry" />
        </mxCell>
        <mxCell id="OqLWs8lkASF6wgnuQL3f-5" value="" style="endArrow=classic;html=1;rounded=0;entryX=1;entryY=0;entryDx=0;entryDy=5;entryPerimeter=0;edgeStyle=orthogonalEdgeStyle;" edge="1" parent="1">
          <mxGeometry width="50" height="50" relative="1" as="geometry">
            <mxPoint x="400" y="471" as="sourcePoint" />
            <mxPoint x="211.5" y="471" as="targetPoint" />
          </mxGeometry>
        </mxCell>
        <mxCell id="OqLWs8lkASF6wgnuQL3f-6" value="4. Muestra listado de cuentas" style="text;html=1;align=center;verticalAlign=middle;whiteSpace=wrap;rounded=0;" vertex="1" parent="1">
          <mxGeometry x="224" y="451" width="170" height="20" as="geometry" />
        </mxCell>
        <mxCell id="OqLWs8lkASF6wgnuQL3f-7" value="" style="endArrow=classic;html=1;rounded=0;fontSize=12;startSize=8;endSize=8;curved=1;entryX=0;entryY=0;entryDx=0;entryDy=5;entryPerimeter=0;" edge="1" parent="1" target="OqLWs8lkASF6wgnuQL3f-9">
          <mxGeometry width="50" height="50" relative="1" as="geometry">
            <mxPoint x="216.5" y="536" as="sourcePoint" />
            <mxPoint x="212.75" y="616" as="targetPoint" />
          </mxGeometry>
        </mxCell>
        <mxCell id="OqLWs8lkASF6wgnuQL3f-8" value="5. Pulsa botón &quot;Eliminar&quot;" style="text;html=1;align=center;verticalAlign=middle;whiteSpace=wrap;rounded=0;" vertex="1" parent="1">
          <mxGeometry x="218.5" y="511" width="190" height="20" as="geometry" />
        </mxCell>
        <mxCell id="OqLWs8lkASF6wgnuQL3f-10" value="" style="endArrow=classic;html=1;rounded=0;entryX=1;entryY=0;entryDx=0;entryDy=5;entryPerimeter=0;edgeStyle=orthogonalEdgeStyle;" edge="1" parent="1">
          <mxGeometry width="50" height="50" relative="1" as="geometry">
            <mxPoint x="612.5" y="431" as="sourcePoint" />
            <mxPoint x="419" y="431" as="targetPoint" />
          </mxGeometry>
        </mxCell>
        <mxCell id="OqLWs8lkASF6wgnuQL3f-11" value="2. Envía listado de cuentas" style="text;html=1;align=center;verticalAlign=middle;whiteSpace=wrap;rounded=0;" vertex="1" parent="1">
          <mxGeometry x="431.5" y="411" width="170" height="20" as="geometry" />
        </mxCell>
        <mxCell id="OqLWs8lkASF6wgnuQL3f-13" value="" style="endArrow=classic;html=1;rounded=0;fontSize=12;startSize=8;endSize=8;curved=1;entryX=0;entryY=0;entryDx=0;entryDy=5;entryPerimeter=0;" edge="1" parent="1" target="OqLWs8lkASF6wgnuQL3f-15">
          <mxGeometry width="50" height="50" relative="1" as="geometry">
            <mxPoint x="419" y="386" as="sourcePoint" />
            <mxPoint x="415.25" y="466" as="targetPoint" />
          </mxGeometry>
        </mxCell>
        <mxCell id="OqLWs8lkASF6wgnuQL3f-14" value="3. Solicita listado de cuentas" style="text;html=1;align=center;verticalAlign=middle;whiteSpace=wrap;rounded=0;" vertex="1" parent="1">
          <mxGeometry x="421.5" y="361" width="190" height="20" as="geometry" />
        </mxCell>
        <mxCell id="OqLWs8lkASF6wgnuQL3f-15" value="" style="html=1;points=[[0,0,0,0,5],[0,1,0,0,-5],[1,0,0,0,5],[1,1,0,0,-5]];perimeter=orthogonalPerimeter;outlineConnect=0;targetShapes=umlLifeline;portConstraint=eastwest;newEdgeStyle={&quot;curved&quot;:0,&quot;rounded&quot;:0};" vertex="1" parent="1">
          <mxGeometry x="609" y="381" width="10" height="30" as="geometry" />
        </mxCell>
        <mxCell id="OqLWs8lkASF6wgnuQL3f-16" value="" style="html=1;points=[[0,0,0,0,5],[0,1,0,0,-5],[1,0,0,0,5],[1,1,0,0,-5]];perimeter=orthogonalPerimeter;outlineConnect=0;targetShapes=umlLifeline;portConstraint=eastwest;newEdgeStyle={&quot;curved&quot;:0,&quot;rounded&quot;:0};" vertex="1" parent="1">
          <mxGeometry x="204" y="461" width="10" height="30" as="geometry" />
        </mxCell>
        <mxCell id="OqLWs8lkASF6wgnuQL3f-21" value="" style="endArrow=classic;html=1;rounded=0;entryX=1;entryY=0;entryDx=0;entryDy=5;entryPerimeter=0;edgeStyle=orthogonalEdgeStyle;" edge="1" parent="1">
          <mxGeometry width="50" height="50" relative="1" as="geometry">
            <mxPoint x="406.5" y="595" as="sourcePoint" />
            <mxPoint x="218" y="595" as="targetPoint" />
          </mxGeometry>
        </mxCell>
        <mxCell id="OqLWs8lkASF6wgnuQL3f-22" value="6. Confirmar eliminación" style="text;html=1;align=center;verticalAlign=middle;whiteSpace=wrap;rounded=0;" vertex="1" parent="1">
          <mxGeometry x="230.5" y="575" width="170" height="20" as="geometry" />
        </mxCell>
        <mxCell id="OqLWs8lkASF6wgnuQL3f-23" value="" style="html=1;points=[[0,0,0,0,5],[0,1,0,0,-5],[1,0,0,0,5],[1,1,0,0,-5]];perimeter=orthogonalPerimeter;outlineConnect=0;targetShapes=umlLifeline;portConstraint=eastwest;newEdgeStyle={&quot;curved&quot;:0,&quot;rounded&quot;:0};" vertex="1" parent="1">
          <mxGeometry x="210.5" y="585" width="10" height="30" as="geometry" />
        </mxCell>
        <mxCell id="OqLWs8lkASF6wgnuQL3f-31" value="" style="endArrow=classic;html=1;rounded=0;fontSize=12;startSize=8;endSize=8;curved=1;entryX=0;entryY=0;entryDx=0;entryDy=5;entryPerimeter=0;" edge="1" parent="1" target="OqLWs8lkASF6wgnuQL3f-33">
          <mxGeometry width="50" height="50" relative="1" as="geometry">
            <mxPoint x="213.5" y="650" as="sourcePoint" />
            <mxPoint x="209.75" y="730" as="targetPoint" />
          </mxGeometry>
        </mxCell>
        <mxCell id="OqLWs8lkASF6wgnuQL3f-32" value="7. Pulsa botón &quot;Confirmar&quot;" style="text;html=1;align=center;verticalAlign=middle;whiteSpace=wrap;rounded=0;" vertex="1" parent="1">
          <mxGeometry x="215.5" y="625" width="190" height="20" as="geometry" />
        </mxCell>
        <mxCell id="OqLWs8lkASF6wgnuQL3f-33" value="" style="html=1;points=[[0,0,0,0,5],[0,1,0,0,-5],[1,0,0,0,5],[1,1,0,0,-5]];perimeter=orthogonalPerimeter;outlineConnect=0;targetShapes=umlLifeline;portConstraint=eastwest;newEdgeStyle={&quot;curved&quot;:0,&quot;rounded&quot;:0};" vertex="1" parent="1">
          <mxGeometry x="403.5" y="645" width="10" height="30" as="geometry" />
        </mxCell>
        <mxCell id="OqLWs8lkASF6wgnuQL3f-37" value="" style="endArrow=classic;html=1;rounded=0;fontSize=12;startSize=8;endSize=8;curved=1;entryX=0;entryY=0;entryDx=0;entryDy=5;entryPerimeter=0;" edge="1" parent="1" target="OqLWs8lkASF6wgnuQL3f-39">
          <mxGeometry width="50" height="50" relative="1" as="geometry">
            <mxPoint x="411.5" y="710" as="sourcePoint" />
            <mxPoint x="407.75" y="790" as="targetPoint" />
          </mxGeometry>
        </mxCell>
        <mxCell id="OqLWs8lkASF6wgnuQL3f-38" value="8. Eliminar cuenta" style="text;html=1;align=center;verticalAlign=middle;whiteSpace=wrap;rounded=0;" vertex="1" parent="1">
          <mxGeometry x="413.5" y="685" width="190" height="20" as="geometry" />
        </mxCell>
        <mxCell id="OqLWs8lkASF6wgnuQL3f-40" value="" style="endArrow=none;dashed=1;html=1;rounded=0;entryX=0.5;entryY=1;entryDx=0;entryDy=0;exitX=0.5;exitY=0;exitDx=0;exitDy=0;" edge="1" parent="1" source="sEuESF4rzVyC_rkCTEI_-48" target="OqLWs8lkASF6wgnuQL3f-39">
          <mxGeometry width="50" height="50" relative="1" as="geometry">
            <mxPoint x="614" y="895" as="sourcePoint" />
            <mxPoint x="614" y="275" as="targetPoint" />
          </mxGeometry>
        </mxCell>
        <mxCell id="OqLWs8lkASF6wgnuQL3f-39" value="" style="html=1;points=[[0,0,0,0,5],[0,1,0,0,-5],[1,0,0,0,5],[1,1,0,0,-5]];perimeter=orthogonalPerimeter;outlineConnect=0;targetShapes=umlLifeline;portConstraint=eastwest;newEdgeStyle={&quot;curved&quot;:0,&quot;rounded&quot;:0};" vertex="1" parent="1">
          <mxGeometry x="609" y="705" width="10" height="30" as="geometry" />
        </mxCell>
        <mxCell id="OqLWs8lkASF6wgnuQL3f-2" value="" style="html=1;points=[[0,0,0,0,5],[0,1,0,0,-5],[1,0,0,0,5],[1,1,0,0,-5]];perimeter=orthogonalPerimeter;outlineConnect=0;targetShapes=umlLifeline;portConstraint=eastwest;newEdgeStyle={&quot;curved&quot;:0,&quot;rounded&quot;:0};" vertex="1" parent="1">
          <mxGeometry x="406.5" y="315" width="10" height="30" as="geometry" />
        </mxCell>
        <mxCell id="OqLWs8lkASF6wgnuQL3f-9" value="" style="html=1;points=[[0,0,0,0,5],[0,1,0,0,-5],[1,0,0,0,5],[1,1,0,0,-5]];perimeter=orthogonalPerimeter;outlineConnect=0;targetShapes=umlLifeline;portConstraint=eastwest;newEdgeStyle={&quot;curved&quot;:0,&quot;rounded&quot;:0};" vertex="1" parent="1">
          <mxGeometry x="406.5" y="531" width="10" height="30" as="geometry" />
        </mxCell>
        <mxCell id="OqLWs8lkASF6wgnuQL3f-12" value="" style="html=1;points=[[0,0,0,0,5],[0,1,0,0,-5],[1,0,0,0,5],[1,1,0,0,-5]];perimeter=orthogonalPerimeter;outlineConnect=0;targetShapes=umlLifeline;portConstraint=eastwest;newEdgeStyle={&quot;curved&quot;:0,&quot;rounded&quot;:0};" vertex="1" parent="1">
          <mxGeometry x="406.5" y="421" width="10" height="30" as="geometry" />
        </mxCell>
        <mxCell id="sEuESF4rzVyC_rkCTEI_-80" value="" style="html=1;points=[[0,0,0,0,5],[0,1,0,0,-5],[1,0,0,0,5],[1,1,0,0,-5]];perimeter=orthogonalPerimeter;outlineConnect=0;targetShapes=umlLifeline;portConstraint=eastwest;newEdgeStyle={&quot;curved&quot;:0,&quot;rounded&quot;:0};" vertex="1" parent="1">
          <mxGeometry x="406.5" y="765" width="10" height="30" as="geometry" />
        </mxCell>
      </root>
    </mxGraphModel>
  </diagram>
  <diagram id="nIOQxxJyPP5hoQOKl2aF" name="Página-2">
    <mxGraphModel dx="1111" dy="507" grid="1" gridSize="10" guides="1" tooltips="1" connect="1" arrows="1" fold="1" page="1" pageScale="1" pageWidth="827" pageHeight="1169" math="0" shadow="0">
      <root>
        <mxCell id="0" />
        <mxCell id="1" parent="0" />
      </root>
    </mxGraphModel>
  </diagram>
</mxfile>
